# xmcd
#
# Track frame offsets: 
#        150
#        26805
#        43670
#        56783
#        76930
#        112216
#        133048
#        171795
#        198734
#
# Disc length: 2948 seconds
#
# Revision: 0
# Processed by: cddbd v1.5.2PL0 Copyright (c) Steve Scherf et al.
# Submitted via: ExactAudioCopy v1.0b1
#
DISCID=830b8209
DTITLE=Eric Clapton  - White'O Room'O - Tokyo, Japan - 1997-10-27 - Di
DTITLE=sc 1  FLAC
DYEAR=1900
DGENRE=
TTITLE0=Layla
TTITLE1=Change the World
TTITLE2=Nobody Knows You
TTITLE3=Tears in Heaven
TTITLE4=Goin' Down Slow
TTITLE5=Before You Accuse Me
TTITLE6=I Shot the Sheriff
TTITLE7=White'O Room'O
TTITLE8=Wonderful Tonight
EXTD=
EXTT0=
EXTT1=
EXTT2=
EXTT3=
EXTT4=
EXTT5=
EXTT6=
EXTT7=
EXTT8=
PLAYORDER=
